<svg xmlns="http://www.w3.org/2000/svg" width="138" height="80" viewBox="0 0 138 80">
  <g id="bike" transform="translate(0 -73.201)">
    <g id="Group_126" data-name="Group 126" transform="translate(0 73.201)">
      <path id="Path_2536" data-name="Path 2536" d="M109.291,99.647a32.607,32.607,0,0,0-11.37,2.116L93.09,93.035V79.151A2,2,0,0,0,91.668,77.3L80.3,73.332a2.1,2.1,0,0,0-2.7,1.19,1.881,1.881,0,0,0,1.279,2.512l10.091,3.438v11.24H47.326V87.878h5.116a1.989,1.989,0,1,0,0-3.967H39.226a1.989,1.989,0,1,0,0,3.967h3.837V93.3l-4.122,8.331a29.134,29.134,0,0,0-10.233-1.851C12.933,99.779,0,111.68,0,126.49S12.791,153.2,28.709,153.2c15.065,0,27.429-10.975,28.566-24.727h9.238a2.079,2.079,0,0,0,1.705-.793L90.531,97.663l3.553,6.215a25.833,25.833,0,0,0-13.5,22.479c0,14.678,12.791,26.711,28.709,26.711S138,141.167,138,126.357,125.209,99.647,109.291,99.647ZM28.709,149.1c-13.5,0-24.445-10.182-24.445-22.744s10.943-22.744,24.445-22.744a24.685,24.685,0,0,1,8.385,1.455l-10.375,20.5v.132a1.122,1.122,0,0,0-.142.661v.132a1.122,1.122,0,0,0,.142.661v.132c0,.132,0,.132.142.264,0,.132.142.132.284.264v.132c.142.132.426.264.568.4h.142a1.363,1.363,0,0,0,.711.132h24.3C51.874,139.977,41.5,149.1,28.709,149.1Zm3.269-24.727,8.954-17.587a22.518,22.518,0,0,1,12.08,17.587Zm33.4,0H57.133c-.711-9.124-6.4-16.926-14.5-21.289l3.837-7.537h40.22ZM109.149,149.1c-13.5,0-24.445-10.182-24.445-22.744,0-8.066,4.548-15.074,11.37-19.174l11.228,20.1a2.246,2.246,0,0,0,1.848,1.058,2.786,2.786,0,0,0,.995-.264,1.9,1.9,0,0,0,.853-2.645l-11.228-20.1a27.969,27.969,0,0,1,9.38-1.719c13.5,0,24.445,10.182,24.445,22.744S122.651,149.1,109.149,149.1Z" transform="translate(0 -73.201)" fill="#ab4b5a"/>
    </g>
  </g>
</svg>
