<svg xmlns="http://www.w3.org/2000/svg" width="101.809" height="108.611" viewBox="0 0 101.809 108.611">
  <g id="box" transform="translate(-16.032 0)">
    <g id="Group_119" data-name="Group 119" transform="translate(16.032 -0.001)">
      <g id="Group_118" data-name="Group 118" transform="translate(0)">
        <path id="Path_2527" data-name="Path 2527" d="M116.942,23.964,67.628.158a1.592,1.592,0,0,0-1.383,0L16.931,23.964a1.591,1.591,0,0,0-.9,1.433V83.213a1.591,1.591,0,0,0,.9,1.433l49.314,23.807a1.591,1.591,0,0,0,1.384,0l49.314-23.807a1.591,1.591,0,0,0,.9-1.433V25.4A1.591,1.591,0,0,0,116.942,23.964ZM66.937,3.357,112.591,25.4,99.357,31.786a1.577,1.577,0,0,0-.269-.17L53.743,9.726ZM50.15,11.525,95.738,33.533,86.4,38.041l-45.569-22ZM96.8,36.551V53.213l-8.721,4.21V40.762Zm17.855,45.663-46.132,22.27V50.2l11-5.312a1.591,1.591,0,1,0-1.384-2.865L66.937,47.437l-4.411-2.13a1.591,1.591,0,1,0-1.384,2.865l4.2,2.029v54.283L19.214,82.214V27.932L54.343,44.891a1.591,1.591,0,0,0,1.383-2.865L21.282,25.4l15.8-7.63L84.879,40.839l.022.028V59.959a1.591,1.591,0,0,0,2.283,1.433l11.9-5.746a1.591,1.591,0,0,0,.9-1.433v-19.2l14.673-7.083V82.215Z" transform="translate(-16.032 0.001)" fill="#ab4b5a"/>
      </g>
    </g>
    <g id="Group_121" data-name="Group 121" transform="translate(22.643 72.518)">
      <g id="Group_120" data-name="Group 120">
        <path id="Path_2528" data-name="Path 2528" d="M57.316,344.817l-7.045-3.4a1.549,1.549,0,1,0-1.347,2.789l7.045,3.4a1.549,1.549,0,0,0,1.347-2.789Z" transform="translate(-48.048 -341.261)" fill="#ab4b5a"/>
      </g>
    </g>
    <g id="Group_123" data-name="Group 123" transform="translate(22.653 65.018)">
      <g id="Group_122" data-name="Group 122" transform="translate(0)">
        <path id="Path_2529" data-name="Path 2529" d="M63.837,312.371l-13.519-6.526a1.549,1.549,0,1,0-1.347,2.79l13.519,6.526a1.549,1.549,0,0,0,1.347-2.79Z" transform="translate(-48.096 -305.69)" fill="#ab4b5a"/>
      </g>
    </g>
  </g>
</svg>
