<svg xmlns="http://www.w3.org/2000/svg" width="88" height="113.778" viewBox="0 0 88 113.778">
  <g id="certification" transform="translate(-58)">
    <path id="Path_2516" data-name="Path 2516" d="M146,18.559,127.441,0H72.222V60.505a15.542,15.542,0,0,0-8.889,27.2v26.068H67l6.559-6.559,6.559,6.559h3.663V102.222H146ZM128.222,4.552l13.226,13.226H128.222ZM60.667,76A12.889,12.889,0,1,1,73.556,88.889,12.9,12.9,0,0,1,60.667,76Zm12.889,27.448L66,111V89.591a15.509,15.509,0,0,0,15.111,0V111Zm10.222-3.892V87.71a15.542,15.542,0,0,0-8.889-27.2V2.667h50.667V20.444h17.778V99.556Z" fill="#bd0b1c"/>
    <path id="Path_2517" data-name="Path 2517" d="M176,64h21.333v2.667H176Z" transform="translate(-91.778 -49.778)" fill="#bd0b1c"/>
    <path id="Path_2518" data-name="Path 2518" d="M176,96h14.222v2.667H176Z" transform="translate(-91.778 -74.667)" fill="#bd0b1c"/>
    <path id="Path_2519" data-name="Path 2519" d="M176,144h49.778v2.667H176Z" transform="translate(-91.778 -112)" fill="#bd0b1c"/>
    <path id="Path_2520" data-name="Path 2520" d="M176,176h49.778v2.667H176Z" transform="translate(-91.778 -136.889)" fill="#bd0b1c"/>
    <path id="Path_2521" data-name="Path 2521" d="M176,240h49.778v2.667H176Z" transform="translate(-91.778 -186.667)" fill="#bd0b1c"/>
    <path id="Path_2522" data-name="Path 2522" d="M208,272h35.556v2.667H208Z" transform="translate(-116.667 -211.556)" fill="#bd0b1c"/>
    <path id="Path_2523" data-name="Path 2523" d="M176,208h49.778v2.667H176Z" transform="translate(-91.778 -161.778)" fill="#bd0b1c"/>
    <path id="Path_2524" data-name="Path 2524" d="M304,320h21.333v2.667H304Z" transform="translate(-191.333 -248.889)" fill="#bd0b1c"/>
    <path id="Path_2525" data-name="Path 2525" d="M336,352h14.222v2.667H336Z" transform="translate(-216.222 -273.778)" fill="#bd0b1c"/>
    <path id="Path_2526" data-name="Path 2526" d="M98.444,320.889A8.444,8.444,0,1,0,90,312.444,8.454,8.454,0,0,0,98.444,320.889Zm0-14.222a5.778,5.778,0,1,1-5.778,5.778A5.784,5.784,0,0,1,98.444,306.667Z" transform="translate(-24.889 -236.444)" fill="#bd0b1c"/>
  </g>
</svg>
