<svg xmlns="http://www.w3.org/2000/svg" width="114.615" height="113" viewBox="0 0 114.615 113">
  <g id="delivery" transform="translate(-23.726 -27)">
    <path id="Path_2530" data-name="Path 2530" d="M73.4,442.006a4.342,4.342,0,1,0,4.342-4.342A4.342,4.342,0,0,0,73.4,442.006Zm5.514,0a1.172,1.172,0,1,1-1.172-1.172,1.172,1.172,0,0,1,1.172,1.172Z" transform="translate(-36.55 -310.17)" fill="#ab4b5a"/>
    <path id="Path_2531" data-name="Path 2531" d="M129.349,27.817A1.475,1.475,0,0,0,128.022,27H61.532a1.475,1.475,0,0,0-1.327.817l-8.65,17.47a1.5,1.5,0,0,0-.375.989v52.45a9.616,9.616,0,0,0-4.622,7.522,8.877,8.877,0,0,1-2.755,1.42l0-.037a2.367,2.367,0,0,0-2.252-1.68H26.085a2.369,2.369,0,0,0-2.272,3l8.17,29.324A2.362,2.362,0,0,0,34.255,140h16.36a2.35,2.35,0,0,0,2.256-3.036l-2.13-6.982,7.713-4.875a4.477,4.477,0,0,1,3.257-.418c.044.011.089.02.134.027l13.618,2.106a16.274,16.274,0,0,0,11.249-2.366l26.671-17.023h23.478a1.413,1.413,0,0,0,1.413-1.413V46.764a1.475,1.475,0,0,0-.086-1.1ZM96.331,29.961H127.1l7.334,14.8H96.331ZM94.776,47.805a1.477,1.477,0,0,0,.477-.08h9.959V58.334H85.228V47.725H94.3a1.478,1.478,0,0,0,.477.08ZM34.712,137.039l-7.834-28.127H41.065L49.7,137.039ZM85.119,122.01a13.3,13.3,0,0,1-9.2,1.91l-13.554-2.108a7.426,7.426,0,0,0-5.386.735l-.068.038-7.071,4.468-5.156-16.586A11.918,11.918,0,0,0,49,108.014a1.366,1.366,0,0,0,.5-1.051,6.7,6.7,0,0,1,6.742-6.686H56.7a9.715,9.715,0,0,0,7.516-3.624l5.865-7.218a3.6,3.6,0,0,1,4.817-.729l.1.059a3.782,3.782,0,0,1,1.283,4.826c-2.344,4.659-5.829,11.6-5.829,11.6a1.579,1.579,0,0,0,.063,1.491,1.53,1.53,0,0,0,1.26.753H108.04Zm.849-17.538V90.334l.979,1.024a1.49,1.49,0,0,0,1.065.461,1.505,1.505,0,0,0,1.071-.444l2.582-2.631,2.548,2.626a1.48,1.48,0,0,0,2.125,0l2.548-2.626,2.581,2.631a1.492,1.492,0,0,0,1.069.444,1.374,1.374,0,0,0,1.012-.461l.924-1.025v14.137Zm49.345,0h-27.88V86.624a1.428,1.428,0,0,0-2.48-1.019l-2.458,2.6-2.562-2.578a1.428,1.428,0,0,0-1.051-.4h0a1.439,1.439,0,0,0-1.058.408l-2.541,2.6-2.541-2.589a1.447,1.447,0,0,0-1.058-.418h0a1.442,1.442,0,0,0-1.057.4l-2.57,2.6-2.47-2.613a1.487,1.487,0,0,0-2.571,1.009v17.848H74.169C75.386,102,77.4,98,78.92,94.969a6.785,6.785,0,0,0-2.276-8.642l-.1-.078a6.544,6.544,0,0,0-8.763,1.294l-5.865,7.243A6.762,6.762,0,0,1,56.7,97.317h-.462a9.82,9.82,0,0,0-2.094.227V47.725H63.27a1.48,1.48,0,1,0,0-2.961H55.116l7.334-14.8H93.37v14.8H73.139a1.48,1.48,0,1,0,0,2.961h9.129V59.761a1.523,1.523,0,0,0,1.476,1.534H106.81a1.432,1.432,0,0,0,1.364-1.534V47.725h27.14Z" transform="translate(0 0)" fill="#ab4b5a"/>
    <path id="Path_2532" data-name="Path 2532" d="M171.585,133.763A1.585,1.585,0,0,0,170,135.348v1.664a1.585,1.585,0,0,0,3.17,0v-1.664A1.585,1.585,0,0,0,171.585,133.763Z" transform="translate(-110.252 -80.5)" fill="#ab4b5a"/>
    <path id="Path_2533" data-name="Path 2533" d="M171.585,159.058A1.585,1.585,0,0,0,170,160.643V178.08a1.585,1.585,0,1,0,3.17,0V160.643A1.585,1.585,0,0,0,171.585,159.058Z" transform="translate(-110.252 -99.95)" fill="#ab4b5a"/>
  </g>
</svg>
