<svg xmlns="http://www.w3.org/2000/svg" width="72.662" height="107.496" viewBox="0 0 72.662 107.496">
  <g id="food-showcase" transform="translate(-81)">
    <circle id="Ellipse_8" data-name="Ellipse 8" cx="2.271" cy="2.271" r="2.271" transform="translate(148.699 42.204)" fill="#bd0b1c"/>
    <path id="Path_2590" data-name="Path 2590" d="M143.7,16.376h-2.783a8.434,8.434,0,0,1-7.807-5.139,18.195,18.195,0,0,0-33.442-.424,9.3,9.3,0,0,1-8.4,5.563h-.3A10.033,10.033,0,0,0,81,26.454s0,79.08.01,79.149a2.088,2.088,0,0,0,1.862,1.883,2,2,0,0,0,.2.01h68.51a2,2,0,0,0,.2-.01,2.088,2.088,0,0,0,1.862-1.883c.007-.068.01-51.645.01-51.645a2.076,2.076,0,1,0-4.152,0v7.093l-4.152-4.462V29.184h4.152v5.879a2.076,2.076,0,1,0,4.152,0V26.454A10.033,10.033,0,0,0,143.7,16.376Zm-2.491,39.253-47.749-.193V44.458h47.749Zm-51.9.96-4.152,4.462V29.184H89.3ZM149.51,83.351H85.152V68.445H149.51Zm-25.951,4.2h17.646V94.9H123.559Zm-30.1,0H111.1V94.9H93.456ZM149.51,103.3H85.152V87.551H89.3V97a2.088,2.088,0,0,0,2.076,2.1h21.8a2.088,2.088,0,0,0,2.076-2.1V87.551h4.152V97a2.088,2.088,0,0,0,2.076,2.1h21.8a2.088,2.088,0,0,0,2.076-2.1V87.551h4.152Zm-2.729-39.051h-58.9l4.3-4.616,50.5.2Zm-5.575-23.987H93.456V29.184h47.749ZM85.336,24.984a5.836,5.836,0,0,1,5.629-4.409h.3a13.46,13.46,0,0,0,12.176-8.019,14.061,14.061,0,0,1,25.844.327,12.579,12.579,0,0,0,11.627,7.692H143.7a5.836,5.836,0,0,1,5.629,4.409Z" fill="#bd0b1c"/>
    <path id="Path_2591" data-name="Path 2591" d="M228.121,39.5a7.121,7.121,0,1,0,7.121,7.121A7.129,7.129,0,0,0,228.121,39.5Zm0,9.494a2.374,2.374,0,1,1,2.374-2.374A2.376,2.376,0,0,1,228.121,48.994Z" transform="translate(-111.797 -30.125)" fill="#bd0b1c"/>
    <path id="Path_2592" data-name="Path 2592" d="M236.374,350.747h2.848a2.374,2.374,0,0,0,0-4.747h-2.848a2.374,2.374,0,0,0,0,4.747Z" transform="translate(-121.695 -273.742)" fill="#bd0b1c"/>
  </g>
</svg>
