<svg xmlns="http://www.w3.org/2000/svg" width="36" height="31.558" viewBox="0 0 36 31.558">
  <path id="Icon_map-food" data-name="Icon map-food" d="M36.641,11.248,33.689,34.382H23.721l-2.939-23.25h12.17l2.405-8.308,1.363.411-2.308,8,2.228.017ZM19.373,24.632s.373-3-4.8-3H6.344c-5.162,0-4.8,3-4.8,3H19.373ZM1.548,31.382s-.365,3,4.8,3h8.233c5.169,0,4.8-3,4.8-3H1.548Zm17.051-1.5a1.725,1.725,0,0,0,1.529-1.874A1.723,1.723,0,0,0,18.6,26.132H2.25A1.726,1.726,0,0,0,.72,28.008a1.728,1.728,0,0,0,1.53,1.874H18.6Z" transform="translate(-0.72 -2.825)" fill="#dbbfc1"/>
</svg>
