<svg xmlns="http://www.w3.org/2000/svg" width="36" height="27.27" viewBox="0 0 36 27.27">
  <path id="Icon_map-clothing-store" data-name="Icon map-clothing-store" d="M37.78,11.092a.861.861,0,0,1-.152.69L33.3,18.214a.962.962,0,0,1-.779.385,2.237,2.237,0,0,1-.392-.04l-3.465-.85V32.948a.771.771,0,0,1-.8.8H11.023a.771.771,0,0,1-.8-.8V17.709l-3.112.858a.733.733,0,0,1-.874-.345L1.944,11.806a.809.809,0,0,1-.112-.674.782.782,0,0,1,.441-.513l8.75-4.139h4.01a.766.766,0,0,1,.8.8c0,1.652,2.318,2.823,3.97,2.823s4.05-1.163,4.05-2.823a.771.771,0,0,1,.8-.8h4.01l8.662,4.058a.863.863,0,0,1,.449.553Z" transform="translate(-1.802 -6.48)" fill="#dbbfc1"/>
</svg>
