<svg xmlns="http://www.w3.org/2000/svg" width="26.155" height="41.849" viewBox="0 0 26.155 41.849">
  <path id="Icon_metro-location" data-name="Icon metro-location" d="M21.432,1.928A13.078,13.078,0,0,0,8.355,15.006c0,13.078,13.078,28.771,13.078,28.771S34.51,28.083,34.51,15.006A13.078,13.078,0,0,0,21.432,1.928Zm0,21.088a8.01,8.01,0,1,1,8.01-8.01A8.01,8.01,0,0,1,21.432,23.016Zm-5.068-8.01a5.068,5.068,0,1,1,5.068,5.068A5.068,5.068,0,0,1,16.365,15.006Z" transform="translate(-8.355 -1.928)" fill="#8c000d"/>
</svg>
