<svg xmlns="http://www.w3.org/2000/svg" width="100.061" height="100.061" viewBox="0 0 100.061 100.061">
  <g id="Line_cutting_stroke_EX" data-name="Line cutting stroke EX" transform="translate(-16 -16)">
    <g id="Group_147" data-name="Group 147" transform="translate(16 16)">
      <path id="Path_2560" data-name="Path 2560" d="M296,295.009v3.335h31.686a1.668,1.668,0,0,0,1.668-1.668V281.668A1.668,1.668,0,0,0,327.686,280H296v3.335h30.018v11.674Z" transform="translate(-237.631 -224.967)" fill="#bd0b1c"/>
      <path id="Path_2561" data-name="Path 2561" d="M307.767,324.35H269.411v3.335h38.357a6.678,6.678,0,0,1-6.671,6.671H264.408a6.732,6.732,0,0,1-1.336-.133l-.664,3.269a10.07,10.07,0,0,0,2,.2H301.1A10.017,10.017,0,0,0,311.1,327.686V296h-3.335Z" transform="translate(-211.042 -237.631)" fill="#bd0b1c"/>
      <path id="Path_2562" data-name="Path 2562" d="M272.779,47.686h-.417v-5h1.251a3.756,3.756,0,0,0,3.752-3.752V21.837A5.843,5.843,0,0,0,271.529,16H240.677v3.335h30.852a2.5,2.5,0,0,1,2.5,2.5V38.931a.417.417,0,0,1-.417.417H231.088a.417.417,0,0,1-.417-.417V21.837a2.5,2.5,0,0,1,2.5-2.5h4.169V16h-4.169a5.843,5.843,0,0,0-5.837,5.837V38.931a3.756,3.756,0,0,0,3.752,3.752h1.251v5h-.417A7.93,7.93,0,0,0,224,55.607v.417h3.335v-.417a4.591,4.591,0,0,1,4.586-4.586h40.858a4.591,4.591,0,0,1,4.586,4.586v7.088H235.674V66.03h41.692v5H280.7V55.607a7.931,7.931,0,0,0-7.921-7.921Zm-37.106,0v-5h33.354v5Z" transform="translate(-180.64 -16)" fill="#bd0b1c"/>
      <path id="Path_2563" data-name="Path 2563" d="M272,48h3.335V61.341H272Z" transform="translate(-218.634 -41.329)" fill="#bd0b1c"/>
      <path id="Path_2564" data-name="Path 2564" d="M304,48h3.335V61.341H304Z" transform="translate(-243.964 -41.329)" fill="#bd0b1c"/>
      <path id="Path_2565" data-name="Path 2565" d="M336,48h3.335V61.341H336Z" transform="translate(-269.293 -41.329)" fill="#bd0b1c"/>
      <path id="Path_2566" data-name="Path 2566" d="M368,48h3.335V61.341H368Z" transform="translate(-294.622 -41.329)" fill="#bd0b1c"/>
      <path id="Path_2567" data-name="Path 2567" d="M400,48h3.335V61.341H400Z" transform="translate(-319.952 -41.329)" fill="#bd0b1c"/>
      <path id="Path_2568" data-name="Path 2568" d="M432,48h3.335V61.341H432Z" transform="translate(-345.281 -41.329)" fill="#bd0b1c"/>
      <path id="Path_2569" data-name="Path 2569" d="M296,392h10.006v3.335H296Z" transform="translate(-237.631 -313.619)" fill="#bd0b1c"/>
      <path id="Path_2570" data-name="Path 2570" d="M360,392h20.012v3.335H360Z" transform="translate(-288.29 -313.619)" fill="#bd0b1c"/>
      <path id="Path_2571" data-name="Path 2571" d="M120.867,115.469l4.962,2.714,2.714,4.962a1.668,1.668,0,0,0,2.926,0l2.714-4.962,4.962-2.714a1.668,1.668,0,0,0,0-2.926l-4.962-2.714-2.714-4.962a1.668,1.668,0,0,0-2.926,0l-2.714,4.962-4.962,2.714a1.668,1.668,0,0,0,0,2.926Zm6.991-2.948a1.668,1.668,0,0,0,.663-.663l1.485-2.715,1.485,2.715a1.669,1.669,0,0,0,.663.663l2.715,1.485-2.715,1.485a1.669,1.669,0,0,0-.663.663l-1.485,2.715-1.485-2.715a1.668,1.668,0,0,0-.663-.663l-2.715-1.485Z" transform="translate(-98.32 -85.655)" fill="#bd0b1c"/>
      <path id="Path_2572" data-name="Path 2572" d="M154.588,240.26A16.278,16.278,0,0,0,138.328,224h-.834a16.3,16.3,0,0,0-15.935,13.01l3.269.663a12.958,12.958,0,0,1,12.666-10.338h.834a12.939,12.939,0,0,1,12.924,12.924v8.755H141.247v3.335h10.006v3.335h-8.338v3.335h8.338v5.42a12.939,12.939,0,0,1-12.924,12.924h-.834a12.913,12.913,0,0,1-4.062-.651l-1.047,3.167a16.244,16.244,0,0,0,5.11.82h.834a16.278,16.278,0,0,0,16.26-16.26Z" transform="translate(-99.555 -180.64)" fill="#bd0b1c"/>
      <path id="Path_2573" data-name="Path 2573" d="M34.968,70.868,38.313,72.7l1.829,3.345a1.668,1.668,0,0,0,2.926,0L44.9,72.7l3.345-1.829a1.668,1.668,0,0,0,0-2.926L44.9,66.112l-1.829-3.345a1.668,1.668,0,0,0-2.926,0l-1.829,3.345-3.345,1.829a1.668,1.668,0,0,0,0,2.926ZM40.342,68.8A1.668,1.668,0,0,0,41,68.141l.6-1.1.6,1.1a1.668,1.668,0,0,0,.663.663l1.1.6-1.1.6a1.668,1.668,0,0,0-.663.663l-.6,1.1-.6-1.1A1.669,1.669,0,0,0,40.342,70l-1.1-.6Z" transform="translate(-30.327 -52.332)" fill="#bd0b1c"/>
      <path id="Path_2574" data-name="Path 2574" d="M56.024,324.012a20.012,20.012,0,1,0-20.012,20.012A20.012,20.012,0,0,0,56.024,324.012Zm-3.335,0a16.575,16.575,0,0,1-1.892,7.71L28.3,309.227a16.673,16.673,0,0,1,24.387,14.785ZM46.561,336.92,32.188,322.547l-2.358,2.358L43.722,338.8a16.673,16.673,0,0,1-22.495-22.5l5.554,5.554,2.358-2.358L23.1,313.463a16.825,16.825,0,0,1,2.359-2.359l23.456,23.456a16.827,16.827,0,0,1-2.359,2.359Z" transform="translate(-16 -243.964)" fill="#bd0b1c"/>
    </g>
  </g>
</svg>
