<svg xmlns="http://www.w3.org/2000/svg" width="123.261" height="146.347" viewBox="0 0 123.261 146.347">
  <g id="Line" transform="translate(-4.791 -45.274) rotate(30)">
    <g id="Group_149" data-name="Group 149" transform="translate(63.996 15.321)">
      <path id="Path_2580" data-name="Path 2580" d="M84.641,222.941a50.644,50.644,0,0,1-15.049-25.453A52.4,52.4,0,0,1,67.88,183.8l-1.933-.093-1.933-.094A55.109,55.109,0,0,0,65.806,198.3a54.509,54.509,0,0,0,16.259,27.529Z" transform="translate(-63.996 -142.894)" fill="#bd0b1c"/>
      <path id="Path_2581" data-name="Path 2581" d="M433.515,183.611l-3.867.188a47.459,47.459,0,0,1-.773,9.256l3.816.655A50.787,50.787,0,0,0,433.515,183.611Z" transform="translate(-340.594 -142.894)" fill="#bd0b1c"/>
      <path id="Path_2582" data-name="Path 2582" d="M180.822,271.376q.041-.425.041-.858a8.71,8.71,0,0,0-14.869-6.159l-.616.616-.616-.616a8.71,8.71,0,0,0-14.869,6.159q0,.432.041.856a51.9,51.9,0,0,1-6.659-4.1L141,270.4a57.68,57.68,0,0,0,11.708,6.538l1.506,1.506a12.4,12.4,0,0,1-1.964,1.609,35.232,35.232,0,0,1-4.878,2.54c-1.161.532-2.363,1.082-3.532,1.714-3.923,2.123-6.414,4.776-7.4,7.886l3.69,1.172c.674-2.122,2.542-4.023,5.553-5.652,1.056-.571,2.147-1.07,3.3-1.6a38.645,38.645,0,0,0,5.408-2.835q.565-.375,1.092-.79l-3.188,9a6.774,6.774,0,0,0,6.385,9.036h4.75v-3.871h-4.75a2.9,2.9,0,0,1-2.737-3.873l3.3-9.3,4.771,4.771a1.936,1.936,0,0,0,2.737,0l4.771-4.771,3.3,9.3a2.9,2.9,0,0,1-2.737,3.873H167.3v3.871h4.78a6.774,6.774,0,0,0,6.385-9.037l-3.187-9q.524.411,1.091.789a38.668,38.668,0,0,0,5.408,2.835c1.155.529,2.246,1.028,3.3,1.6,3.011,1.629,4.88,3.531,5.553,5.652l3.69-1.171c-.987-3.11-3.477-5.763-7.4-7.886-1.169-.632-2.371-1.182-3.532-1.714a35.175,35.175,0,0,1-4.878-2.54,12.371,12.371,0,0,1-1.965-1.608l1.507-1.507c21.146-8.841,29.147-25.471,32.132-37.9l-3.764-.9c-2.564,10.683-9.11,24.7-25.6,33.247Zm-15.443,12.76-10.2-10.2a4.839,4.839,0,1,1,6.843-6.843l1.984,1.984a1.936,1.936,0,0,0,2.737,0l1.984-1.984a4.839,4.839,0,0,1,6.844,6.843Z" transform="translate(-118.909 -184.221)" fill="#bd0b1c"/>
      <path id="Path_2583" data-name="Path 2583" d="M67.782,54.019a19.346,19.346,0,0,0,6.329,5.549,7.745,7.745,0,0,0,5.632,9.916,7.756,7.756,0,0,0,7.544,6h.007a21.21,21.21,0,0,0,4.749,12.831,1.936,1.936,0,0,0,2.255.566,21.4,21.4,0,0,0,10.045-8.728,7.736,7.736,0,0,0,12.728-.556,21.353,21.353,0,0,0,10.368,9.285,1.936,1.936,0,0,0,2.255-.566,21.192,21.192,0,0,0,4.75-12.863,7.761,7.761,0,0,0,6.842-5.972,7.745,7.745,0,0,0,5.6-10.017,19.37,19.37,0,0,0,9.868-16.014,1.936,1.936,0,0,0-.879-1.708,19.41,19.41,0,0,0-8.827-3.043,7.745,7.745,0,0,0-4.141-8.9,11.693,11.693,0,0,0,2.278-9.8,11.575,11.575,0,0,0-1.538-3.707,1.936,1.936,0,0,0-1.386-.88,11.624,11.624,0,0,0-12.845,9.136,7.764,7.764,0,0,0-3.219,4.681,7.758,7.758,0,0,0-2.208.885,7.748,7.748,0,0,0-5.928-8.629,7.744,7.744,0,0,0-15.091,0,7.75,7.75,0,0,0-5.93,8.618,7.683,7.683,0,0,0-2.207-.878,7.764,7.764,0,0,0-3.219-4.677,11.624,11.624,0,0,0-12.845-9.136,1.937,1.937,0,0,0-1.386.88A11.629,11.629,0,0,0,78.116,29.8a7.746,7.746,0,0,0-4.14,8.879,19.354,19.354,0,0,0-9.035,3.061,1.936,1.936,0,0,0-.879,1.708,19.269,19.269,0,0,0,3.719,10.566ZM83.417,67.746a1.936,1.936,0,0,0-1.936-1.936,3.871,3.871,0,1,1,0-7.742,1.936,1.936,0,0,0,1.936-1.936,3.871,3.871,0,0,1,7.742,0,1.936,1.936,0,0,0,1.936,1.936c.065,0,.131,0,.2.005A9.687,9.687,0,0,0,96.6,63.582a3.879,3.879,0,0,1-3.508,2.228,1.936,1.936,0,0,0-1.936,1.936,3.871,3.871,0,0,1-7.742,0ZM96.972,48.39a9.737,9.737,0,0,0-3.031,3.785,7.8,7.8,0,0,0-2.907-2.818,7.791,7.791,0,0,0,3.4-3.8,9.748,9.748,0,0,0,2.537,2.831Zm29.622-2.831a7.791,7.791,0,0,0,3.4,3.8,7.8,7.8,0,0,0-2.907,2.818,9.737,9.737,0,0,0-3.031-3.785,9.748,9.748,0,0,0,2.536-2.831Zm-23.821,16.38a5.807,5.807,0,0,1-1.687-11.364,9.71,9.71,0,0,0,7.243,7.243A5.817,5.817,0,0,1,102.773,61.939Zm17.171-11.364a5.807,5.807,0,1,1-7.243,7.243,9.71,9.71,0,0,0,7.243-7.243Zm4.12-9.928a5.817,5.817,0,0,1-4.12,5.557,9.71,9.71,0,0,0-7.243-7.243,5.807,5.807,0,0,1,11.364,1.687ZM107.6,43.365a5.8,5.8,0,1,1-2.118,2.123l-3.351-1.938a9.644,9.644,0,0,0-1.046,2.655,5.807,5.807,0,1,1,7.243-7.243,9.641,9.641,0,0,0-2.674,1.057ZM94.156,84.675a17.312,17.312,0,0,1-2.99-10.23,7.77,7.77,0,0,0,3.668-4.962,7.734,7.734,0,0,0,2.208-.886,7.749,7.749,0,0,0,4.7,8.235A17.5,17.5,0,0,1,94.156,84.675Zm20.23-9.187a3.871,3.871,0,1,1-7.742,0,1.936,1.936,0,0,0-1.936-1.936,3.871,3.871,0,1,1,0-7.742v-.194a9.694,9.694,0,0,0,5.807-3.683,9.7,9.7,0,0,0,5.807,3.683v.194a3.871,3.871,0,0,1,0,7.742A1.936,1.936,0,0,0,114.386,75.488Zm13.2,9.188a17.458,17.458,0,0,1-7.715-8.113,7.748,7.748,0,0,0,4.122-7.97,7.746,7.746,0,0,0,2.208.889,7.772,7.772,0,0,0,4.384,5.33A17.3,17.3,0,0,1,127.582,84.676ZM139.548,65.81a1.936,1.936,0,0,0-1.936,1.936,3.871,3.871,0,0,1-7.742,0,1.936,1.936,0,0,0-1.936-1.936,3.888,3.888,0,0,1-3.507-2.228,9.688,9.688,0,0,0,3.311-5.509c.065,0,.13,0,.2,0a1.936,1.936,0,0,0,1.936-1.936,3.871,3.871,0,1,1,7.742,0,1.936,1.936,0,0,0,1.936,1.936,3.871,3.871,0,1,1,0,7.742Zm10.363-14.078a15.494,15.494,0,0,1-5.15,4.488,7.732,7.732,0,0,0-3.474-1.826,7.773,7.773,0,0,0-3.8-5.036,7.773,7.773,0,0,0,3.8-5.036,7.734,7.734,0,0,0,3.464-1.817,15.272,15.272,0,0,1,8.045,1.9,15.41,15.41,0,0,1-2.885,7.324ZM139.1,19.38a8.048,8.048,0,0,1,1.74-.188,7.747,7.747,0,0,1-.551,7.643,7.745,7.745,0,0,0-6.3-3.605A7.751,7.751,0,0,1,139.1,19.38ZM127.935,32.905a1.936,1.936,0,0,0,1.936-1.936,3.871,3.871,0,1,1,7.742,0,1.936,1.936,0,0,0,1.936,1.936,3.871,3.871,0,1,1,0,7.742,1.936,1.936,0,0,0-1.936,1.936,3.871,3.871,0,1,1-7.742,0,1.936,1.936,0,0,0-1.936-1.936,9.643,9.643,0,0,0-2.673-6.671A3.879,3.879,0,0,1,127.935,32.905Zm-23.227-7.742a1.936,1.936,0,0,0,1.936-1.936,3.871,3.871,0,1,1,7.742,0,1.936,1.936,0,0,0,1.936,1.936,3.871,3.871,0,0,1,3.3,5.9,9.68,9.68,0,0,0-9.1,3.782,9.68,9.68,0,0,0-9.1-3.782,3.871,3.871,0,0,1,3.3-5.9ZM79.623,20.847a7.763,7.763,0,0,1,.571-1.655,7.97,7.97,0,0,1,1.74.188,7.757,7.757,0,0,1,5.11,3.851,7.746,7.746,0,0,0-6.3,3.611A7.716,7.716,0,0,1,79.623,20.847Zm1.859,12.058a1.936,1.936,0,0,0,1.936-1.936,3.871,3.871,0,1,1,7.742,0,1.936,1.936,0,0,0,1.936,1.936,3.852,3.852,0,0,1,2.675,1.069,9.644,9.644,0,0,0-2.675,6.673,1.936,1.936,0,0,0-1.936,1.936,3.871,3.871,0,0,1-7.742,0,1.936,1.936,0,0,0-1.936-1.936,3.871,3.871,0,1,1,0-7.742Zm-5.19,9.611a7.73,7.73,0,0,0,3.452,1.806,7.772,7.772,0,0,0,3.8,5.036,7.772,7.772,0,0,0-3.8,5.036,7.735,7.735,0,0,0-3.552,1.9,15.5,15.5,0,0,1-8.17-11.882,15.5,15.5,0,0,1,8.27-1.893Z" transform="translate(-64.045 -15.321)" fill="#bd0b1c"/>
      <path id="Path_2584" data-name="Path 2584" d="M152.061,96h3.871v3.871h-3.871Z" transform="translate(-130.754 -76.48)" fill="#bd0b1c"/>
      <path id="Path_2585" data-name="Path 2585" d="M344.061,96h3.871v3.871h-3.871Z" transform="translate(-276.3 -76.48)" fill="#bd0b1c"/>
      <path id="Path_2586" data-name="Path 2586" d="M248.061,64h3.871v3.871h-3.871Z" transform="translate(-203.527 -52.222)" fill="#bd0b1c"/>
      <path id="Path_2587" data-name="Path 2587" d="M152.061,200h3.871v3.871h-3.871Z" transform="translate(-130.754 -155.317)" fill="#bd0b1c"/>
      <path id="Path_2588" data-name="Path 2588" d="M344.061,200h3.871v3.871h-3.871Z" transform="translate(-276.3 -155.317)" fill="#bd0b1c"/>
      <path id="Path_2589" data-name="Path 2589" d="M248.061,232h3.871v3.871h-3.871Z" transform="translate(-203.527 -179.575)" fill="#bd0b1c"/>
    </g>
  </g>
</svg>
