<svg id="Group_1" data-name="Group 1" xmlns="http://www.w3.org/2000/svg" width="30.674" height="43.088" viewBox="0 0 30.674 43.088">
  <path id="Path_1" data-name="Path 1" d="M191.271,78.332a27.493,27.493,0,0,1,5.212-.737,41.1,41.1,0,0,1,9.862.515,12.221,12.221,0,0,1,7.818,4.958A15.819,15.819,0,0,0,188.4,79.333,12.033,12.033,0,0,1,191.271,78.332Z" transform="translate(-184.19 -74.276)" fill="#bd0b1c"/>
  <path id="Path_2" data-name="Path 2" d="M208.1,154.77a74.683,74.683,0,0,1-9.568-.351,15.573,15.573,0,0,1-2.976-.637l5.5,9.517a3.609,3.609,0,0,0,3.176,1.747,3.683,3.683,0,0,0,3.176-1.747l5.316-9.2A17.524,17.524,0,0,1,208.1,154.77Z" transform="translate(-188.424 -121.958)" fill="#bd0b1c"/>
  <path id="Path_3" data-name="Path 3" d="M202.39,103.177q-6.1-1.449-12.2-2.934a6.649,6.649,0,0,1-1.458-.53c-.627-.322-.658-.754-.035-1.075a18.044,18.044,0,0,1,2.476-1c2.811-.956,5.643-1.85,8.439-2.848.562-.2,1.354-.711,1.411-1.158.1-.806-.843-1.045-1.477-1.179-2-.423-4.019-.793-6.046-1.07-3.236-.441-6.483-.792-9.727-1.179-.825-.1-1.652-.19-2.575-.294a15.749,15.749,0,0,0-1.4,2.266h0q5.655.816,11.3,1.675a1.071,1.071,0,0,1,.664.431,7.539,7.539,0,0,1-.991.406c-3.575.917-7.157,1.806-10.729,2.736-.634.165-1.261.365-1.9.574-.037.44-.056.885-.056,1.334a16.221,16.221,0,0,0,1.1,5.736l24.631,8.767,3.55-6.141a18.541,18.541,0,0,0,1.393-3.037C206.608,104.159,204.5,103.677,202.39,103.177Z" transform="translate(-178.094 -83.524)" fill="#bd0b1c"/>
</svg>
