<svg xmlns="http://www.w3.org/2000/svg" width="101.503" height="108.976" viewBox="0 0 101.503 108.976">
  <g id="Outline" transform="translate(-3 -1.997)">
    <g id="Group_148" data-name="Group 148" transform="translate(3 1.997)">
      <path id="Path_2575" data-name="Path 2575" d="M97.365,92.811A1.792,1.792,0,0,0,99.133,91V29.245a1.824,1.824,0,0,0-.934-1.6,1.727,1.727,0,0,0-1.814.091l-.915.627a13.728,13.728,0,0,0-3.711-7.777,8.858,8.858,0,0,1,1.3-.294l1.009-.142A1.808,1.808,0,0,0,95.577,18.1a1.777,1.777,0,0,0-1.99-1.555l-1.011.142a12.432,12.432,0,0,0-4.16,1.371,12.7,12.7,0,0,0-10.137-.85A7.321,7.321,0,0,0,79.692,12.9a7.169,7.169,0,0,0-7.069-7.265,6.569,6.569,0,0,0-1.638.207,8.668,8.668,0,0,0-14.4,0,6.579,6.579,0,0,0-1.638-.207,7.253,7.253,0,0,0-6.868,8.948,9.043,9.043,0,0,0-3.633,6,9.2,9.2,0,0,0,1.7,6.847,9.268,9.268,0,0,0-.687,1.1L36.923,13.325h0l-1.767-3.149A15.675,15.675,0,0,0,13.417,4.195a9.23,9.23,0,0,0-3.234,12.4l2.02,3.594a1.742,1.742,0,0,0,2.414.665,1.844,1.844,0,0,0,.647-2.481L13.24,14.783a5.581,5.581,0,0,1-.53-4.137,5.431,5.431,0,0,1,2.474-3.309,12.192,12.192,0,0,1,16.9,4.655l.884,1.571-6.12,3.632a1.845,1.845,0,0,0-.648,2.482,1.742,1.742,0,0,0,2.415.666l6.122-3.632,2.651,4.722-6.122,3.632a1.834,1.834,0,0,0-.852,1.853,1.8,1.8,0,0,0,1.37,1.489l-7.859,5.38L18.5,24.136a1.742,1.742,0,0,0-2.415-.666,1.845,1.845,0,0,0-.648,2.482l2.828,5.036L13.511,27.73a1.727,1.727,0,0,0-1.813-.087,1.824,1.824,0,0,0-.931,1.6v9.081a1.768,1.768,0,1,0,3.535,0V32.64l7.856,5.381a1.728,1.728,0,0,0,1.962,0l9.623-6.6,9.623,6.593a1.728,1.728,0,0,0,1.962,0l9.623-6.593,9.623,6.593a1.728,1.728,0,0,0,1.962,0l7.856-5.38v74.7H51.415a1.817,1.817,0,0,0,0,3.632H97.365a1.792,1.792,0,0,0,1.767-1.816V98.26a1.768,1.768,0,1,0-3.535,0v6.513l-7.069-7.265V87.363a1.768,1.768,0,1,0-3.535,0V97.508l-7.069,7.265V32.638l7.069,4.844V60.12a1.768,1.768,0,1,0,3.535,0V37.481L95.6,32.64V91A1.792,1.792,0,0,0,97.365,92.811ZM85.157,20.595a13.076,13.076,0,0,0-1.677,2.267,1.844,1.844,0,0,0,.6,2.492,1.741,1.741,0,0,0,2.425-.621,9.3,9.3,0,0,1,1.944-2.341,10.076,10.076,0,0,1,3.611,7.762c0,.194-.03.38-.042.57l-5.26,3.607-9.623-6.593a1.734,1.734,0,0,0-.981-.309h0a7.324,7.324,0,0,0-.965-3.632,7.486,7.486,0,0,0,.4-.814,9.494,9.494,0,0,1,9.567-2.388ZM34.722,27.734a1.713,1.713,0,0,0-.5-.232l4.931-2.924,5.4,9.608-.207.145Zm30.831,6.6-7.184-4.922a18.517,18.517,0,0,1,9.3-8.518,1.835,1.835,0,0,0,.984-2.363,1.753,1.753,0,0,0-2.3-1.012,21.73,21.73,0,0,0-5.618,3.414,21.7,21.7,0,0,0-.543-6.653,1.765,1.765,0,0,0-2.144-1.32,1.82,1.82,0,0,0-1.285,2.2,17.912,17.912,0,0,1-1.424,12.332,1.716,1.716,0,0,0-1.377.245l-5.977,4.1A5.448,5.448,0,0,1,49.715,28.8a1.85,1.85,0,0,0,0-2.724,5.486,5.486,0,0,1,1.276-9.039,1.8,1.8,0,0,0,.936-1.058,1.862,1.862,0,0,0-.1-1.426,3.6,3.6,0,0,1,1.288-4.729,3.452,3.452,0,0,1,3.442-.131,1.724,1.724,0,0,0,1.388.1,1.786,1.786,0,0,0,1.03-.961,5.22,5.22,0,0,1,9.625,0,1.786,1.786,0,0,0,1.03.963,1.745,1.745,0,0,0,1.387-.1,3.437,3.437,0,0,1,3.729.3A3.662,3.662,0,0,1,76.1,13.579a3.574,3.574,0,0,1-2.556,2.806,1.779,1.779,0,0,0-1.12.942,1.862,1.862,0,0,0-.059,1.486,3.72,3.72,0,0,1,.262,1.351,3.64,3.64,0,0,1-.923,2.417,1.854,1.854,0,0,0,0,2.43,3.685,3.685,0,0,1,.634,3.881,3.511,3.511,0,0,1-3.195,2.169c-.046,0-.233-.027-.277-.029a1.731,1.731,0,0,0-1.472.656,1.838,1.838,0,0,0-.335,1.612Zm21.208,66.5,6.338,6.513H80.424Z" transform="translate(2.37 -1.997)" fill="#ab4b5a"/>
      <path id="Path_2576" data-name="Path 2576" d="M53.895,39A1.9,1.9,0,0,0,52,40.895v7.579a1.895,1.895,0,0,0,3.79,0V40.895A1.9,1.9,0,0,0,53.895,39Z" transform="translate(34.344 27.881)" fill="#ab4b5a"/>
      <path id="Path_2577" data-name="Path 2577" d="M58.049,75.135a1.895,1.895,0,0,0-2.029,1.753c-.424,5.829-4.47,14.431-7.543,14.431a7.5,7.5,0,0,1-4.548-1.554,1.9,1.9,0,0,0-2.285,0,7.5,7.5,0,0,1-4.536,1.554c-3.411,0-7.579-10.149-7.579-15.159a7.579,7.579,0,0,1,7.579-7.579,7.5,7.5,0,0,1,4.548,1.554,1.9,1.9,0,0,0,2.285,0,7.579,7.579,0,0,1,10.147.976,1.895,1.895,0,0,0,2.812-2.53,11.369,11.369,0,0,0-8.423-3.79,11.081,11.081,0,0,0-3.989.758,14.789,14.789,0,0,0-.673-2.653h4.661a9.486,9.486,0,0,0,9.474-9.474,1.9,1.9,0,0,0-1.895-1.895H50.371a9.461,9.461,0,0,0-9.1,6.948,14.611,14.611,0,0,0-3.123-2.842,1.9,1.9,0,1,0-2.1,3.153,10.827,10.827,0,0,1,4.548,6.59,11.066,11.066,0,0,0-3.49-.586,11.368,11.368,0,0,0-1.895.171V62.573a14.738,14.738,0,0,0-4.345-10.49,10.969,10.969,0,0,1-3.234-7.811v-7.9a1.9,1.9,0,0,0,1.895-1.895V26.895A1.9,1.9,0,0,0,27.633,25H10.579a1.9,1.9,0,0,0-1.895,1.895v7.579a1.9,1.9,0,0,0,1.895,1.895v7.9a10.969,10.969,0,0,1-3.234,7.811A14.738,14.738,0,0,0,3,62.573V93.214a1.9,1.9,0,0,0,1.895,1.895H25.738a1.895,1.895,0,1,0,0-3.79H6.79V81.845H26.634c1.62,6.052,5.353,13.264,10.473,13.264a11.166,11.166,0,0,0,5.684-1.555,11.161,11.161,0,0,0,5.685,1.555c6.48,0,10.88-11.854,11.325-17.944a1.895,1.895,0,0,0-1.753-2.029ZM50.371,55.317h3.466a5.7,5.7,0,0,1-5.36,3.79H45.01a5.7,5.7,0,0,1,5.36-3.79ZM12.474,28.79H25.738v3.79H12.474ZM6.79,78.055V68.581H23.843a1.895,1.895,0,1,0,0-3.79H6.79V62.573a10.969,10.969,0,0,1,3.234-7.811,14.738,14.738,0,0,0,4.345-10.49v-7.9h9.474v7.9a14.73,14.73,0,0,0,4.345,10.49,10.969,10.969,0,0,1,3.234,7.811V66.33a11.369,11.369,0,0,0-5.685,9.83,15.93,15.93,0,0,0,.14,1.895Z" transform="translate(-3 13.867)" fill="#ab4b5a"/>
      <path id="Path_2578" data-name="Path 2578" d="M49.948,27H32.895a1.895,1.895,0,1,0,0,3.79H49.948a1.895,1.895,0,0,0,0-3.79Z" transform="translate(18.097 18.342)" fill="#ab4b5a"/>
      <path id="Path_2579" data-name="Path 2579" d="M47.264,32H35.895a1.895,1.895,0,0,0,0,3.79H47.264a1.895,1.895,0,0,0,0-3.79Z" transform="translate(20.626 22.409)" fill="#ab4b5a"/>
    </g>
  </g>
</svg>
