<svg xmlns="http://www.w3.org/2000/svg" width="116" height="79.287" viewBox="0 0 116 79.287">
  <g id="outline" transform="translate(-2 -12)">
    <path id="Path_2542" data-name="Path 2542" d="M57.211,18.967A1.933,1.933,0,0,0,55.533,18h-11.6A1.933,1.933,0,0,0,42,19.933V39.267A1.933,1.933,0,0,0,43.933,41.2H63.267A1.933,1.933,0,0,0,65.2,39.267v-5.8a1.933,1.933,0,0,0-.255-.967Zm4.122,18.367H45.867V21.867h8.545l6.921,12.114Z" transform="translate(37.333 5.6)" fill="#ab4b5a"/>
    <path id="Path_2543" data-name="Path 2543" d="M42,32h7.733v3.867H42Z" transform="translate(37.333 18.667)" fill="#ab4b5a"/>
    <path id="Path_2544" data-name="Path 2544" d="M117.14,43.258l-5.413-3.608L102.27,22.633a12.965,12.965,0,0,0-11.337-6.767H60V12H56.133V41H2V68.067H19.615A13.533,13.533,0,1,0,42.6,77.733c0-.18-.019-.354-.027-.53l4.209-1.4H67.733a1.933,1.933,0,0,0,1.657-.937l5.238-8.729h1.054a13.533,13.533,0,1,0,18.9,0h1.054l5.237,8.729a1.933,1.933,0,0,0,1.657.938h13.533A1.933,1.933,0,0,0,118,73.867v-29a1.933,1.933,0,0,0-.861-1.609ZM29.067,87.4a9.667,9.667,0,1,1,9.667-9.667A9.667,9.667,0,0,1,29.067,87.4ZM44.533,72.473l-2.672.891a13.533,13.533,0,0,0-3.343-5.3h6.015Zm11.6-.539H48.4V68.067h7.733Zm0-7.733H5.867V52.6H56.133Zm0-15.467H5.867V44.867H56.133Zm15.467-5.8H67.733V27.467H71.6ZM94.8,75.8a9.667,9.667,0,1,1-9.667-9.667A9.667,9.667,0,0,1,94.8,75.8Zm19.333-11.6H106.4v3.867h7.733v3.867H103.628L98.39,63.2a1.933,1.933,0,0,0-1.657-.938H75.467V25.533A1.933,1.933,0,0,0,73.533,23.6H65.8a1.933,1.933,0,0,0-1.933,1.933V44.867A1.933,1.933,0,0,0,65.8,46.8h5.8V63.664l-4.961,8.269H60v-52.2H90.933A9.172,9.172,0,0,1,98.91,24.54l7.49,13.481V50.667a5.8,5.8,0,0,0,5.8,5.8h1.933Zm0-11.6H112.2a1.933,1.933,0,0,1-1.933-1.933V43.32l3.867,2.577Z" transform="translate(0 0)" fill="#ab4b5a"/>
    <path id="Path_2545" data-name="Path 2545" d="M18.8,43a5.8,5.8,0,1,0,5.8,5.8A5.8,5.8,0,0,0,18.8,43Zm0,7.733A1.933,1.933,0,1,1,20.733,48.8,1.933,1.933,0,0,1,18.8,50.733Z" transform="translate(10.267 28.933)" fill="#ab4b5a"/>
    <path id="Path_2546" data-name="Path 2546" d="M47.8,42a5.8,5.8,0,1,0,5.8,5.8A5.8,5.8,0,0,0,47.8,42Zm0,7.733A1.933,1.933,0,1,1,49.733,47.8,1.933,1.933,0,0,1,47.8,49.733Z" transform="translate(37.333 28)" fill="#ab4b5a"/>
    <path id="Path_2547" data-name="Path 2547" d="M6,35H9.867v3.867H6Z" transform="translate(3.733 21.467)" fill="#ab4b5a"/>
    <path id="Path_2548" data-name="Path 2548" d="M10,35h3.867v3.867H10Z" transform="translate(7.467 21.467)" fill="#ab4b5a"/>
    <path id="Path_2549" data-name="Path 2549" d="M26,35h3.867v3.867H26Z" transform="translate(22.4 21.467)" fill="#ab4b5a"/>
  </g>
</svg>
