<?xml version="1.0" encoding="utf-8"?>
<!-- Generator: Adobe Illustrator 24.3.0, SVG Export Plug-In . SVG Version: 6.00 Build 0)  -->
<svg version="1.1" id="Layer_1" xmlns="http://www.w3.org/2000/svg" xmlns:xlink="http://www.w3.org/1999/xlink" x="0px" y="0px"
	 viewBox="0 0 20 20" style="enable-background:new 0 0 20 20;" xml:space="preserve">
<style type="text/css">
	.st0{fill:#704C32;}
</style>
<path class="st0" d="M15,7.3l-6.28,6.3c0,0,0,0,0,0c-0.08,0.08-0.3,0.26-0.54,0.26c-0.18,0-0.38-0.1-0.55-0.27L5,10.97
	c-0.08-0.07-0.08-0.19,0-0.27l0.84-0.84c0.04-0.04,0.08-0.06,0.13-0.06s0.09,0.02,0.13,0.06l2.08,2.08l5.73-5.77
	c0.04-0.04,0.08-0.06,0.13-0.06c0.05,0,0.1,0.02,0.13,0.06l0.82,0.85C15.07,7.11,15.07,7.23,15,7.3z M10,0.24
	c-5.39,0-9.76,4.37-9.76,9.76c0,5.39,4.37,9.76,9.76,9.76c5.39,0,9.76-4.37,9.76-9.76C19.76,4.61,15.39,0.24,10,0.24z"/>
</svg>
