<svg xmlns="http://www.w3.org/2000/svg" width="119" height="96.643" viewBox="0 0 119 96.643">
  <g id="shop" transform="translate(0 -48.096)">
    <g id="Group_142" data-name="Group 142" transform="translate(0 48.096)">
      <g id="Group_141" data-name="Group 141">
        <path id="Path_2558" data-name="Path 2558" d="M113.531,141.252h-1.983V89.538A16.18,16.18,0,0,0,119,75.923a1.744,1.744,0,0,0-.23-.865L104.938,50.852a5.482,5.482,0,0,0-4.749-2.756H18.811a5.482,5.482,0,0,0-4.749,2.756L.23,75.058a1.745,1.745,0,0,0-.23.865A16.18,16.18,0,0,0,7.452,89.538v51.715H5.469a1.743,1.743,0,0,0,0,3.486H113.531a1.743,1.743,0,1,0,0-3.486ZM3.606,77.666H9.195a1.743,1.743,0,0,0,0-3.486H4.747l12.342-21.6a1.987,1.987,0,0,1,1.722-1h81.379a1.987,1.987,0,0,1,1.722,1l12.342,21.6H109.8a1.743,1.743,0,1,0,0,3.486h5.589a12.695,12.695,0,0,1-25.149,0h12.108a1.743,1.743,0,0,0,0-3.486h-85.7a1.743,1.743,0,1,0,0,3.486H28.756a12.695,12.695,0,0,1-25.149,0Zm82.906,0a12.693,12.693,0,0,1-25.147,0Zm-28.878,0a12.693,12.693,0,0,1-25.147,0Zm41.111,63.586H79.874v-5.829H98.745Zm0-9.316H79.874V100.024H98.745Zm9.316,9.316h-5.829V98.281a1.743,1.743,0,0,0-1.743-1.743H78.131a1.743,1.743,0,0,0-1.743,1.743v42.972H10.939V91.228a16.166,16.166,0,0,0,19.683-8,16.179,16.179,0,0,0,28.878,0,16.179,16.179,0,0,0,28.878,0,16.167,16.167,0,0,0,19.683,8Z" transform="translate(0 -48.096)" fill="#ab4b5a"/>
      </g>
    </g>
    <g id="Group_144" data-name="Group 144" transform="translate(16.768 96.537)">
      <g id="Group_143" data-name="Group 143">
        <path id="Path_2559" data-name="Path 2559" d="M124.193,256.516h-50.3a1.743,1.743,0,0,0-1.743,1.743v35.4a1.743,1.743,0,0,0,1.743,1.743h50.3a1.743,1.743,0,0,0,1.743-1.743v-35.4A1.743,1.743,0,0,0,124.193,256.516Zm-1.743,35.4H75.631V260h46.818Z" transform="translate(-72.145 -256.516)" fill="#ab4b5a"/>
      </g>
    </g>
  </g>
</svg>
