<svg id="surface1" xmlns="http://www.w3.org/2000/svg" width="132.487" height="53" viewBox="0 0 132.487 53">
  <path id="Path_2540" data-name="Path 2540" d="M248.832,86.891H240v4.417h8.832Zm0,0" transform="translate(-171.548 -67.018)" fill="#ab4b5a"/>
  <path id="Path_2541" data-name="Path 2541" d="M1.895,13.763l15-2.142a75.7,75.7,0,0,1,8.5-4.5A74.36,74.36,0,0,1,56.157.492h2.606A75.057,75.057,0,0,1,94.6,9.631l7.57,4.129a52.175,52.175,0,0,1,25.249,6.845,10.081,10.081,0,0,1,5.066,8.729V42.446a2.208,2.208,0,0,1-2.208,2.208h-7.414a13.2,13.2,0,0,1-24.914,0H38.956a13.2,13.2,0,0,1-24.914,0h-.792a2.218,2.218,0,0,1-.821-.157l-7.152-2.87A8.35,8.35,0,0,1,0,33.835V15.949A2.209,2.209,0,0,1,1.895,13.763ZM101.753,42a8.834,8.834,0,1,0-.179-1.766A8.832,8.832,0,0,0,101.753,42ZM61.828,40.238h35.33a13.249,13.249,0,1,1,26.5,0h4.416v-10.9a5.649,5.649,0,0,0-2.842-4.9,47.741,47.741,0,0,0-23.655-6.282H61.828Zm0-26.5H92.913l-.426-.233a70.6,70.6,0,0,0-30.66-8.5ZM57.412,4.908h-1.25A69.886,69.886,0,0,0,30.18,9.886l3.855,3.855H57.412ZM17.844,42a8.834,8.834,0,1,0-.179-1.766A8.833,8.833,0,0,0,17.844,42ZM4.416,20.365h6.625v4.417H4.416v9.053a3.952,3.952,0,0,0,2.5,3.689l6.334,2.544c0-.2.026-.4.039-.607s.018-.441.04-.662.066-.442.1-.662.062-.442.106-.642.109-.424.166-.634.1-.421.168-.627.146-.4.22-.6.144-.408.221-.607.181-.379.274-.567.183-.393.287-.583.221-.351.321-.527.22-.378.346-.559.243-.325.365-.488.259-.356.4-.526.273-.3.411-.442.289-.326.441-.481.3-.277.455-.413.316-.3.484-.442.338-.253.5-.379.336-.26.512-.378.376-.22.565-.344.345-.221.524-.315.4-.2.6-.292.362-.183.55-.262.442-.164.662-.243.365-.142.552-.2c.252-.077.509-.133.766-.2.168-.039.329-.092.5-.127.271-.056.55-.086.826-.127.164-.022.32-.058.483-.073a13.421,13.421,0,0,1,1.347-.068A13.262,13.262,0,0,1,39.739,40.236H57.411V18.156H33.122a2.2,2.2,0,0,1-1.561-.647l-5.726-5.726a70.806,70.806,0,0,0-7,3.829,2.216,2.216,0,0,1-.856.314L4.416,17.862Zm0,0" transform="translate(0 -0.492)" fill="#ab4b5a"/>
</svg>
