<svg xmlns="http://www.w3.org/2000/svg" width="123.716" height="65.606" viewBox="0 0 123.716 65.606">
  <g id="truck" transform="translate(0 -120.245)">
    <g id="Group_128" data-name="Group 128" transform="translate(21.316 174.479)">
      <g id="Group_127" data-name="Group 127" transform="translate(0 0)">
        <path id="Path_2550" data-name="Path 2550" d="M90.04,344.692h-.02a1.822,1.822,0,1,0,.02,0Z" transform="translate(-88.218 -344.692)" fill="#ab4b5a"/>
      </g>
    </g>
    <g id="Group_130" data-name="Group 130" transform="translate(36.812 174.479)">
      <g id="Group_129" data-name="Group 129" transform="translate(0 0)">
        <path id="Path_2551" data-name="Path 2551" d="M154.169,344.692h-.019a1.822,1.822,0,1,0,.019,0Z" transform="translate(-152.347 -344.692)" fill="#ab4b5a"/>
      </g>
    </g>
    <g id="Group_132" data-name="Group 132" transform="translate(100.732 174.479)">
      <g id="Group_131" data-name="Group 131" transform="translate(0 0)">
        <path id="Path_2552" data-name="Path 2552" d="M418.7,344.692h-.019a1.822,1.822,0,1,0,.019,0Z" transform="translate(-416.879 -344.692)" fill="#ab4b5a"/>
      </g>
    </g>
    <g id="Group_134" data-name="Group 134" transform="translate(0 120.245)">
      <g id="Group_133" data-name="Group 133" transform="translate(0 0)">
        <path id="Path_2553" data-name="Path 2553" d="M122.051,152.569l-2.437-2.437-4.909-14.727a1.812,1.812,0,0,0-.549-3.539H96.6v-7.872a3.753,3.753,0,0,0-3.749-3.749H3.749A3.753,3.753,0,0,0,0,123.994v42.613a3.753,3.753,0,0,0,3.749,3.749H5.811v4A3.753,3.753,0,0,0,9.56,178.1h4.173a9.554,9.554,0,0,0,17.133,3.778A9.554,9.554,0,0,0,48,178.1H93.149a9.559,9.559,0,0,0,18.945-1.812c0-.042,0-.082,0-.124h7.876a3.753,3.753,0,0,0,3.749-3.749V156.589A5.647,5.647,0,0,0,122.051,152.569ZM13.733,174.479H9.56a.125.125,0,0,1-.125-.125v-4h6.2A9.523,9.523,0,0,0,13.733,174.479Zm9.386,7.748a5.935,5.935,0,0,1-.037-11.87h.074a5.935,5.935,0,0,1-.037,11.87Zm15.5,0a5.935,5.935,0,0,1-.037-11.87h.074a5.935,5.935,0,0,1-.037,11.87Zm54.534-7.748H48a9.521,9.521,0,0,0-1.9-4.123H81.228a1.812,1.812,0,1,0,0-3.624H3.749a.125.125,0,0,1-.125-.125V123.994a.125.125,0,0,1,.125-.125h89.1a.125.125,0,0,1,.125.125v42.738h-4a1.812,1.812,0,1,0,0,3.624h6.071A9.52,9.52,0,0,0,93.149,174.479Zm23.012-23.243h-11.69a.125.125,0,0,1-.125-.125v-7.873H113.5Zm-13.627,30.991a5.935,5.935,0,0,1-.037-11.87h.05a5.935,5.935,0,0,1-.013,11.871Zm17.557-9.808a.125.125,0,0,1-.125.125h-8.639a9.574,9.574,0,0,0-8.794-5.812H96.6V135.616h0a.125.125,0,0,1,.125-.125h14.189l1.374,4.123h-9.753a1.812,1.812,0,0,0-1.812,1.812v9.685a3.753,3.753,0,0,0,3.749,3.749h14.745l.272.272a2.049,2.049,0,0,1,.6,1.458v4.332H118.03a1.812,1.812,0,1,0,0,3.624h2.062Z" transform="translate(0 -120.245)" fill="#ab4b5a"/>
      </g>
    </g>
    <g id="Group_136" data-name="Group 136" transform="translate(7.748 158.984)">
      <g id="Group_135" data-name="Group 135">
        <path id="Path_2554" data-name="Path 2554" d="M111.355,280.567H33.876a1.812,1.812,0,0,0,0,3.625h77.478a1.812,1.812,0,0,0,0-3.625Z" transform="translate(-32.064 -280.567)" fill="#ab4b5a"/>
      </g>
    </g>
  </g>
</svg>
